<svg width="102" height="105" viewBox="0 0 102 105" fill="none" xmlns="http://www.w3.org/2000/svg">
<g filter="url(#filter0_d)">
<path d="M4 3C4 1.34315 5.34315 0 7 0H95C96.6569 0 98 1.34315 98 3V32H4V3Z" fill="#0182AC"/>
<path d="M40.1953 21.8125H34.5586L33.5742 25H29.1797L35.4375 7.9375H39.3047L45.6094 25H41.1914L40.1953 21.8125ZM35.543 18.6367H39.2109L37.3711 12.7188L35.543 18.6367ZM54.0938 23.6289C53.2578 24.6992 52.1289 25.2344 50.707 25.2344C49.3164 25.2344 48.2617 24.832 47.543 24.0273C46.832 23.2148 46.4766 22.0508 46.4766 20.5352V12.3203H50.4258V20.5586C50.4258 21.6445 50.9531 22.1875 52.0078 22.1875C52.9141 22.1875 53.5586 21.8633 53.9414 21.2148V12.3203H57.9141V25H54.2109L54.0938 23.6289ZM59.625 18.5664C59.625 17.2852 59.8359 16.1523 60.2578 15.168C60.6797 14.1836 61.2852 13.4258 62.0742 12.8945C62.8633 12.3555 63.7812 12.0859 64.8281 12.0859C66.1484 12.0859 67.1797 12.5312 67.9219 13.4219L68.0625 12.3203H71.6484V24.5195C71.6484 25.6367 71.3867 26.6055 70.8633 27.4258C70.3477 28.2539 69.5977 28.8867 68.6133 29.3242C67.6289 29.7695 66.4883 29.9922 65.1914 29.9922C64.2617 29.9922 63.3594 29.8164 62.4844 29.4648C61.6172 29.1133 60.9531 28.6562 60.4922 28.0938L62.1445 25.7734C62.8789 26.6406 63.8477 27.0742 65.0508 27.0742C66.8008 27.0742 67.6758 26.1758 67.6758 24.3789V23.9805C66.918 24.8164 65.9609 25.2344 64.8047 25.2344C63.2578 25.2344 62.0078 24.6445 61.0547 23.4648C60.1016 22.2773 59.625 20.6914 59.625 18.707V18.5664ZM63.5859 18.8125C63.5859 19.8516 63.7812 20.6758 64.1719 21.2852C64.5625 21.8867 65.1094 22.1875 65.8125 22.1875C66.6641 22.1875 67.2852 21.9023 67.6758 21.332V16C67.293 15.4219 66.6797 15.1328 65.8359 15.1328C65.1328 15.1328 64.582 15.4492 64.1836 16.082C63.7852 16.707 63.5859 17.6172 63.5859 18.8125Z" fill="white"/>
<path d="M5.5 33.5H96.5V92C96.5 93.933 94.933 95.5 93 95.5H9C7.067 95.5 5.5 93.933 5.5 92V33.5Z" stroke="#0182AC" stroke-width="3"/>
<path d="M38.1719 57.4219H40.6562C42.625 57.4219 43.6094 56.4583 43.6094 54.5312C43.6094 53.7812 43.375 53.1719 42.9062 52.7031C42.4375 52.224 41.776 51.9844 40.9219 51.9844C40.224 51.9844 39.6146 52.1875 39.0938 52.5938C38.5833 53 38.3281 53.5052 38.3281 54.1094H33.0625C33.0625 52.9115 33.3958 51.8438 34.0625 50.9062C34.7292 49.9688 35.651 49.2396 36.8281 48.7188C38.0156 48.1875 39.3177 47.9219 40.7344 47.9219C43.2656 47.9219 45.2552 48.5 46.7031 49.6562C48.151 50.8125 48.875 52.401 48.875 54.4219C48.875 55.401 48.5729 56.3281 47.9688 57.2031C47.375 58.0677 46.5052 58.7708 45.3594 59.3125C46.5677 59.75 47.5156 60.4167 48.2031 61.3125C48.8906 62.1979 49.2344 63.2969 49.2344 64.6094C49.2344 66.6406 48.4531 68.2656 46.8906 69.4844C45.3281 70.7031 43.276 71.3125 40.7344 71.3125C39.2448 71.3125 37.8594 71.0312 36.5781 70.4688C35.3073 69.8958 34.3438 69.1094 33.6875 68.1094C33.0312 67.099 32.7031 65.9531 32.7031 64.6719H38C38 65.3698 38.2812 65.974 38.8438 66.4844C39.4062 66.9948 40.099 67.25 40.9219 67.25C41.849 67.25 42.5885 66.9948 43.1406 66.4844C43.6927 65.9635 43.9688 65.3021 43.9688 64.5C43.9688 63.3542 43.6823 62.5417 43.1094 62.0625C42.5365 61.5833 41.7448 61.3438 40.7344 61.3438H38.1719V57.4219ZM67.6875 61.7031C67.6875 64.776 66.9948 67.1458 65.6094 68.8125C64.2344 70.4792 62.2917 71.3125 59.7812 71.3125C57.25 71.3125 55.2917 70.474 53.9062 68.7969C52.5208 67.1198 51.8281 64.7552 51.8281 61.7031V57.5469C51.8281 54.474 52.5156 52.1042 53.8906 50.4375C55.276 48.7708 57.2292 47.9375 59.75 47.9375C62.2708 47.9375 64.224 48.776 65.6094 50.4531C66.9948 52.1302 67.6875 54.5 67.6875 57.5625V61.7031ZM62.4219 56.875C62.4219 55.2396 62.2083 54.0208 61.7812 53.2188C61.3542 52.4062 60.6771 52 59.75 52C58.8438 52 58.1823 52.375 57.7656 53.125C57.3594 53.875 57.1406 55.0104 57.1094 56.5312V62.3438C57.1094 64.0417 57.3229 65.2865 57.75 66.0781C58.1771 66.8594 58.8542 67.25 59.7812 67.25C60.6771 67.25 61.3385 66.8698 61.7656 66.1094C62.1927 65.3385 62.4115 64.1354 62.4219 62.5V56.875Z" fill="white"/>
</g>
<defs>
<filter id="filter0_d" x="0" y="0" width="102" height="105" filterUnits="userSpaceOnUse" color-interpolation-filters="sRGB">
<feFlood flood-opacity="0" result="BackgroundImageFix"/>
<feColorMatrix in="SourceAlpha" type="matrix" values="0 0 0 0 0 0 0 0 0 0 0 0 0 0 0 0 0 0 127 0"/>
<feOffset dy="4"/>
<feGaussianBlur stdDeviation="2"/>
<feColorMatrix type="matrix" values="0 0 0 0 0 0 0 0 0 0 0 0 0 0 0 0 0 0 0.5 0"/>
<feBlend mode="normal" in2="BackgroundImageFix" result="effect1_dropShadow"/>
<feBlend mode="normal" in="SourceGraphic" in2="effect1_dropShadow" result="shape"/>
</filter>
</defs>
</svg>
