<svg width="40" height="41" viewBox="0 0 40 41" fill="none" xmlns="http://www.w3.org/2000/svg">
<path d="M35.7143 0.856934H4.28571C1.91875 0.856934 0 2.77568 0 5.14265V36.5712C0 38.9382 1.91875 40.8569 4.28571 40.8569H35.7143C38.0812 40.8569 40 38.9382 40 36.5712V5.14265C40 2.77568 38.0812 0.856934 35.7143 0.856934ZM8.39286 35.1426C7.76491 35.1426 7.22705 34.7076 7.08786 34.1045L5.74875 28.301C5.67813 27.9949 5.7173 27.6739 5.8594 27.3938C6.0015 27.1137 6.23751 26.8925 6.52616 26.7688L12.776 24.0903C13.043 23.9759 13.3399 23.9514 13.622 24.0205C13.9041 24.0895 14.1562 24.2485 14.3401 24.4733L17.1077 27.8559C21.4777 25.8056 24.9913 22.2435 26.9988 17.9648L23.6162 15.1972C23.3914 15.0133 23.2325 14.7612 23.1634 14.4791C23.0943 14.197 23.1188 13.9001 23.2332 13.6331L25.9118 7.38327C26.0355 7.09462 26.2567 6.85862 26.5368 6.71651C26.8168 6.57441 27.1379 6.53525 27.4439 6.60586L33.2475 7.94497C33.5426 8.013 33.8059 8.17907 33.9945 8.41605C34.1831 8.65304 34.2857 8.94694 34.2857 9.24979C34.2857 23.5616 22.6835 35.1426 8.39286 35.1426Z" fill="black"/>
</svg>

